<?xml version="1.0" encoding="UTF-8" standalone="no"?>
<!-- Created with Inkscape (http://www.inkscape.org/) -->

<svg
   xmlns:dc="http://purl.org/dc/elements/1.1/"
   xmlns:cc="http://creativecommons.org/ns#"
   xmlns:rdf="http://www.w3.org/1999/02/22-rdf-syntax-ns#"
   xmlns:svg="http://www.w3.org/2000/svg"
   xmlns="http://www.w3.org/2000/svg"
   xmlns:sodipodi="http://sodipodi.sourceforge.net/DTD/sodipodi-0.dtd"
   xmlns:inkscape="http://www.inkscape.org/namespaces/inkscape"
   width="64"
   height="64"
   viewBox="0 0 64 64.000003"
   id="svg2"
   version="1.1"
   inkscape:version="0.48.5 r10040"
   sodipodi:docname="aimis.svg"
   inkscape:export-filename="/home/alexis/dev/aimis3.png"
   inkscape:export-xdpi="421.875"
   inkscape:export-ydpi="421.875">
  <defs
     id="defs4" />
  <sodipodi:namedview
     id="base"
     pagecolor="#ffffff"
     bordercolor="#666666"
     borderopacity="1.0"
     inkscape:pageopacity="0.0"
     inkscape:pageshadow="2"
     inkscape:zoom="7.90625"
     inkscape:cx="37.759463"
     inkscape:cy="25.458988"
     inkscape:document-units="px"
     inkscape:current-layer="layer1"
     showgrid="true"
     units="px"
     inkscape:showpageshadow="false"
     borderlayer="true"
     inkscape:window-width="1280"
     inkscape:window-height="977"
     inkscape:window-x="1278"
     inkscape:window-y="-3"
     inkscape:window-maximized="1"
     showguides="true"
     inkscape:snap-global="false">
    <inkscape:grid
       type="xygrid"
       id="grid4136" />
    <sodipodi:guide
       position="5,59.000069"
       orientation="54,0"
       id="guide4142" />
    <sodipodi:guide
       position="5,5.0000688"
       orientation="0,54"
       id="guide4144" />
    <sodipodi:guide
       position="59,5.0000688"
       orientation="-54,0"
       id="guide4146" />
    <sodipodi:guide
       position="59,59.000069"
       orientation="0,-54"
       id="guide4148" />
    <sodipodi:guide
       position="0,64.000069"
       orientation="64,0"
       id="guide4150" />
    <sodipodi:guide
       position="0,6.875e-05"
       orientation="0,64"
       id="guide4152" />
    <sodipodi:guide
       position="64,64.000069"
       orientation="0,-64"
       id="guide4156" />
  </sodipodi:namedview>
  <metadata
     id="metadata7">
    <rdf:RDF>
      <cc:Work
         rdf:about="">
        <dc:format>image/svg+xml</dc:format>
        <dc:type
           rdf:resource="http://purl.org/dc/dcmitype/StillImage" />
        <dc:title></dc:title>
      </cc:Work>
    </rdf:RDF>
  </metadata>
  <g
     inkscape:label="Capa 1"
     inkscape:groupmode="layer"
     id="layer1"
     transform="translate(0,-1058.5196)">
    <path
       style="opacity:1;fill:#1a1a1a;fill-opacity:1;stroke:none;stroke-opacity:1"
       d="m 2,1063.5196 0,44 24.755859,0 c -0.263086,2.082 -0.752336,4.1166 -1.539062,6.0293 -0.676468,0.1596 -3.216797,2.436 -3.216797,2.9707 0,0.554 0.446,1 1,1 l 2,0 16,0 c 0.554,0 1,-0.446 1,-1 0,-0.5347 -2.540329,-2.8111 -3.216797,-2.9707 -0.786726,-1.9127 -1.275976,-3.9473 -1.539062,-6.0293 l 24.755859,0 0,-44 z"
       id="rect4214-7"
       inkscape:connector-curvature="0"
       sodipodi:nodetypes="ccccsscssccccc" />
    <rect
       style="opacity:1;fill:#2c3e50;fill-opacity:1;stroke:none;stroke-opacity:1"
       id="rect4228-5"
       width="58"
       height="40.999878"
       x="3"
       y="1064.5197"
       ry="0" />
    <path
       style="fill:none;stroke:#ff0000;stroke-width:0.2;stroke-linecap:butt;stroke-linejoin:miter;stroke-miterlimit:4;stroke-opacity:1;stroke-dasharray:none"
       d="m 21.911926,29.030356 c 0,0 4.604151,-1.726203 7.602097,-7.154915 3.309147,-5.99224 4.471821,-15.7408118 4.471821,-15.7408118"
       id="path3789"
       inkscape:connector-curvature="0"
       transform="translate(-1.5e-6,1058.5196)"
       sodipodi:nodetypes="csc" />
    <path
       style="fill:#ffffff;fill-opacity:1;fill-rule:evenodd;stroke:#000000;stroke-width:1px;stroke-linecap:butt;stroke-linejoin:miter;stroke-opacity:1"
       d="M 31.998048,1094.5196 Z"
       id="path4216"
       inkscape:connector-curvature="0" />
    <rect
       style="fill:#74c8f4;fill-opacity:1;stroke:none"
       id="rect4158"
       width="19.28126"
       height="19.28126"
       x="4.3109312"
       y="1065.015"
       ry="9.6406298" />
    <path
       inkscape:connector-curvature="0"
       style="fill:#aedffa;fill-opacity:1;fill-rule:nonzero;stroke:none"
       d="m 11.905438,1065.3336 c -0.389819,0.083 -0.767526,0.195 -1.13813,0.3229 -0.0093,0.027 -0.02173,0.054 -0.01674,0.072 0.02596,0.092 0.196426,0.026 0.241992,0.1129 -0.01047,0.1072 -0.126154,0.1604 -0.216886,0.2064 -0.0846,0.042 -0.193147,0.1504 -0.284532,0.096 -0.03573,-0.093 0.103535,-0.093 0.06974,-0.173 -0.0251,-0.059 -0.133335,-0.02 -0.18132,-0.077 -0.02139,-0.026 -0.02627,-0.055 -0.02581,-0.086 -2.8364085,1.1276 -5.0018886,3.5543 -5.7680586,6.5553 -0.026862,0.1109 -0.053697,0.2218 -0.076712,0.3341 -0.00154,0.01 -0.00336,0.015 -0.00488,0.023 -0.072774,0.3595 -0.1229897,0.7274 -0.1548191,1.1005 0.034888,0.01 0.073232,0.015 0.1053049,0.03 0.061707,0.028 0.1099621,0.093 0.1806222,0.129 0.08745,0.045 0.205059,0.071 0.311033,0.1207 0.1020722,0.048 0.2387502,0.1126 0.3200993,0.1129 0.08178,0 0.169158,-0.084 0.2594264,-0.086 0.2117628,-0.01 0.3039212,0.2694 0.4749181,0.3543 0.042932,0.021 0.1001276,0.022 0.1555169,0.036 0.044921,0.01 0.078379,0.028 0.1213445,0.042 0.091383,0.031 0.2031185,0.028 0.2761641,0.06 0.1101245,0.049 0.19056,0.2556 0.28523,0.3109 0.00459,0.056 -0.010186,0.1319 0.00837,0.1737 0.044712,0.06 0.1076248,0.047 0.1813197,0.086 0.088102,0.048 0.1152076,0.1703 0.1987539,0.2079 0.028552,0.013 0.1001859,0.011 0.1457531,0.026 0.1144949,0.036 0.1522229,0.167 0.2503608,0.138 0.064338,-0.019 0.059487,-0.085 0.069737,-0.1465 0.042526,-0.046 0.089227,-0.12 0.1555162,-0.1213 0.1073053,0 0.1164872,0.1126 0.1555172,0.2169 0.022037,0.058 0.080516,0.11 0.095541,0.1722 0.026374,0.1072 0.012967,0.4275 -0.00907,0.4916 -0.027031,0.079 -0.1330818,0.1123 -0.1987539,0.1995 -0.03072,0.041 -0.044766,0.1004 -0.068342,0.1291 -0.042058,0.051 -0.1071541,0.065 -0.1387794,0.1123 -0.017871,0.027 -0.034364,0.085 -0.051605,0.1206 -0.052136,0.1099 -0.1216918,0.1874 -0.078105,0.3194 0.017898,0.054 0.1029951,0.092 0.103212,0.1562 1.862e-4,0.076 -0.1598319,0.1407 -0.172254,0.2232 -0.00938,0.061 0.049652,0.1719 0.069044,0.2517 0.014631,0.06 0.1283207,0.099 0.1638846,0.1388 0.060621,0.068 0.1091941,0.1643 0.164582,0.2497 0.1094748,0.1681 0.1946453,0.372 0.3012703,0.5348 0.056068,0.086 0.1361349,0.1633 0.1736487,0.2518 0.019166,0.045 0.017007,0.097 0.034868,0.1374 0.061737,0.1393 0.3342507,0.2851 0.474918,0.3543 0.065858,0.032 0.1383485,0.044 0.1987548,0.078 0.091572,0.051 0.273183,0.1868 0.3194018,0.267 0.041446,0.072 0.065732,0.2487 0.085781,0.3634 0.02659,0.1516 0.00162,0.2668 0.00837,0.4309 0.00378,0.089 0.033798,0.1789 0.034868,0.2679 6.425e-4,0.031 -0.015666,0.055 -0.016737,0.086 -0.00378,0.1077 0.025897,0.2291 0.016737,0.3375 -0.00504,0.059 -0.021092,0.1048 -0.016737,0.1541 0.00459,0.054 0.029307,0.1009 0.033474,0.1478 0.00441,0.05 -0.012499,0.1155 -0.00837,0.1549 0.01177,0.1089 0.091601,0.194 0.112976,0.2936 0.017007,0.079 0.026941,0.2424 0.016737,0.3375 -0.00522,0.05 -0.035615,0.1008 -0.043237,0.1556 -0.00567,0.044 0.00612,0.088 0,0.1289 -0.00873,0.06 -0.046701,0.1083 -0.043237,0.1646 0.00765,0.1165 0.1372092,0.2113 0.1555162,0.3278 0.0063,0.039 -0.010123,0.083 -0.00837,0.1207 0.00315,0.064 0.028776,0.1194 0.045333,0.1778 0.4475639,0.2153 0.9150789,0.396 1.3982529,0.5411 0.007,-0.011 0.01385,-0.023 0.01674,-0.037 0.01046,-0.051 -0.01574,-0.073 -0.01813,-0.1547 0.01942,-0.085 0.111359,-0.096 0.129015,-0.1821 -0.03599,-0.061 -0.117949,-0.019 -0.172254,-0.051 -0.05276,-0.03 -0.07666,-0.1 -0.06904,-0.1653 0.09009,-0.038 0.263244,0.092 0.327771,-0.032 0.0321,-0.059 -0.03542,-0.2069 0.0091,-0.267 0.03033,-0.041 0.194822,-0.041 0.258729,-0.053 0.0916,-0.016 0.198659,-0.036 0.25036,-0.069 0.05647,-0.038 0.140201,-0.1441 0.130412,-0.2504 -0.0049,-0.05 -0.03928,-0.068 -0.0781,-0.1123 -0.0325,-0.038 -0.04546,-0.085 -0.06904,-0.1206 -0.04033,-0.06 -0.102743,-0.051 -0.120647,-0.1381 0.123879,-0.023 0.312388,0.1019 0.491656,0.051 0.08503,-0.024 0.202527,-0.2055 0.241991,-0.2853 0.01267,-0.026 0.01183,-0.063 0.02581,-0.094 0.01507,-0.032 0.04662,-0.06 0.0516,-0.077 0.01335,-0.048 0.006,-0.084 0.01674,-0.113 0.03141,-0.087 0.11336,-0.1165 0.16528,-0.1813 0.03925,-0.049 0.05754,-0.1074 0.09484,-0.1562 0.04058,-0.053 0.07708,-0.099 0.10391,-0.1458 0.02551,-0.1576 -0.06337,-0.2679 -0.0265,-0.4059 0.04145,-0.155 0.255636,-0.2508 0.405877,-0.3208 0.0517,-0.023 0.10505,-0.062 0.147148,-0.076 0.103993,-0.037 0.232669,-0.018 0.32777,-0.052 0.161829,-0.059 0.179628,-0.2319 0.259427,-0.3793 0.03796,-0.07 0.08741,-0.1407 0.09484,-0.1904 0.0067,-0.045 -0.01668,-0.085 -0.0091,-0.1374 0.0076,-0.052 0.05625,-0.099 0.07044,-0.1563 0.01873,-0.075 0.0251,-0.1845 0.0251,-0.2677 0,-0.068 -0.0318,-0.1281 -0.03487,-0.1898 -0.0111,-0.224 0.08102,-0.2497 0.163885,-0.3716 0.04122,-0.06 0.05679,-0.129 0.08578,-0.1724 0.139152,-0.2076 0.381504,-0.3082 0.364034,-0.622 -0.0057,-0.1039 -0.0706,-0.3378 -0.147148,-0.371 -0.04361,-0.019 -0.143897,-10e-5 -0.207121,-0.026 -0.204144,-0.076 -0.323378,-0.3297 -0.534894,-0.346 -0.04516,-0.01 -0.08795,0.018 -0.138779,0.018 -0.08373,0 -0.209979,-0.059 -0.302664,-0.07 -0.05889,-0.01 -0.136911,0.018 -0.172254,0 -0.05409,-0.027 -0.05938,-0.1245 -0.103213,-0.1541 -0.0351,-0.022 -0.102762,-0.031 -0.155516,-0.051 -0.08507,-0.032 -0.152921,-0.072 -0.251059,-0.079 -0.03031,0 -0.06812,0.014 -0.103212,0.01 -0.0543,-0.01 -0.097,-0.073 -0.147148,-0.1032 -0.06261,-0.038 -0.119823,-0.058 -0.145753,-0.1123 0.05669,-0.186 -0.101313,-0.2377 -0.139477,-0.3452 -0.01787,-0.05 -0.0101,-0.1113 -0.02581,-0.1562 -0.02246,-0.065 -0.08573,-0.1004 -0.155517,-0.1541 -0.124965,-0.096 -0.235628,-0.1865 -0.414246,-0.2085 -0.07849,-0.01 -0.155507,0.024 -0.250361,0.018 -0.100523,-0.01 -0.226753,-0.095 -0.301966,-0.1813 -0.07308,-0.084 -0.109262,-0.158 -0.172952,-0.1981 -0.06041,-0.039 -0.140815,-0.039 -0.182017,-0.078 -0.01828,-0.018 -0.01524,-0.047 -0.03487,-0.087 -0.03031,-0.063 -0.08029,-0.097 -0.04254,-0.1722 -0.06893,-0.036 -0.07118,0.066 -0.14645,0.052 -0.06716,-0.095 -0.123722,-0.1415 -0.276164,-0.1136 -0.06957,0.013 -0.109039,0.1024 -0.190386,0.1046 -0.06673,0 -0.1190228,-0.074 -0.2071231,-0.086 -0.066506,-0.01 -0.1423545,0.018 -0.1896881,0.01 -0.073696,-0.015 -0.097205,-0.077 -0.164582,-0.1206 -0.049284,-0.032 -0.1445589,-0.087 -0.1722538,-0.086 -0.08677,0.01 -0.1480665,0.1841 -0.2677958,0.1206 -0.058426,-0.074 0.094034,-0.1124 0.025105,-0.1813 -0.052352,-0.052 -0.095532,0.023 -0.1373838,0.052 -0.047772,0.032 -0.094178,0.067 -0.1471479,0.086 -0.1186449,0.045 -0.1925162,0.021 -0.2852308,0.069 -0.085897,0.044 -0.08875,0.1188 -0.1373838,0.2071 -0.039898,0.072 -0.1306298,0.1775 -0.1903855,0.182 -0.0724,0.01 -0.142179,-0.102 -0.2078205,-0.1304 -0.1977937,-0.085 -0.2932411,0.076 -0.4574839,0.077 -0.1524415,0 -0.3702915,-0.2451 -0.3626394,-0.3885 0.00486,-0.087 0.050201,-0.2196 0.060675,-0.3278 0.00846,-0.086 0.067505,-0.1377 0.068342,-0.2161 0.00117,-0.105 -0.1390638,-0.1857 -0.2071222,-0.1981 -0.1613633,-0.03 -0.3841282,0.065 -0.5690652,-0.01 -0.035334,-0.059 0.040861,-0.099 0.060675,-0.1562 0.011122,-0.031 0.00324,-0.076 0.016737,-0.1116 0.020507,-0.055 0.078141,-0.098 0.1039102,-0.1562 0.0194,-0.045 0.022235,-0.1087 0.041842,-0.1638 0.022451,-0.063 0.06494,-0.1031 0.069737,-0.1472 0.0063,-0.058 -0.015108,-0.1255 -0.060675,-0.1639 -0.1434901,0.01 -0.2378379,0.016 -0.3194018,0.052 -0.1868887,0.085 -0.1501343,0.3377 -0.3368365,0.3974 -0.064558,0.021 -0.1527658,0.021 -0.22386,0.033 -0.061274,0.011 -0.1355291,0.045 -0.1987545,0.043 -0.074815,0 -0.2065741,-0.073 -0.251058,-0.1206 -0.039676,-0.043 -0.1355466,-0.2559 -0.1464505,-0.2937 -0.073511,-0.2545 0.00638,-0.4884 0.1032126,-0.6653 0.020506,-0.038 0.054467,-0.072 0.069738,-0.1116 0.023106,-0.06 0.00768,-0.1514 0.025805,-0.2161 0.03311,-0.1204 0.1905084,-0.193 0.301967,-0.2511 0.1262647,-0.066 0.2330543,-0.1708 0.3800739,-0.1806 0.073263,-0.01 0.1799488,0.02 0.2503607,0.036 0.065022,0.013 0.1173917,0.057 0.173648,0.061 0.1596285,0.012 0.19754,-0.1125 0.3277711,-0.182 0.1345359,0.019 0.224408,-0.022 0.3459017,-0.01 0.082865,0.01 0.142566,0.099 0.2071232,0.1038 0.054305,0.01 0.1015842,-0.051 0.1541215,-0.043 0.05102,0.01 0.1395443,0.1189 0.1478452,0.1814 0.010231,0.077 -0.05713,0.1476 -0.034868,0.2328 0.081344,0.083 0.2296746,0.099 0.3459017,0.1471 0.075675,-0.062 0.010231,-0.1774 0,-0.2677 -0.00441,-0.04 0.00405,-0.076 0,-0.1122 -0.00675,-0.062 -0.034661,-0.1198 -0.034868,-0.173 -0.00108,-0.2457 0.1977748,-0.3612 0.3626394,-0.4582 0.071311,-0.041 0.1277638,-0.1155 0.1896881,-0.1465 0.087454,-0.044 0.15286,-0.054 0.2252547,-0.095 0.1308492,-0.074 0.2422191,-0.133 0.3445078,-0.2162 0.047304,-0.1114 0.00279,-0.2615 0.00837,-0.3717 0.047331,-0.029 0.089326,0.012 0.1394768,0.01 0.07896,-0.017 0.084287,-0.1278 0.1290158,-0.1722 0.02569,-0.026 0.098132,-0.045 0.1304111,-0.069 0.078744,-0.062 0.1035458,-0.1533 0.1722539,-0.18 0.024619,-0.01 0.08183,-0.01 0.1206471,-0.018 0.051452,-0.013 0.1238252,-0.075 0.2071232,-0.1039 0.05409,-0.019 0.178031,-0.022 0.198754,-0.043 0.02548,-0.027 1.01e-4,-0.098 0.0084,-0.1373 0.04187,-0.195 0.336188,-0.2371 0.509787,-0.3027 0.12168,-0.046 0.247072,-0.1292 0.380771,-0.1032 -0.02617,0.093 -0.151537,0.059 -0.130411,0.1722 0.02947,0.1561 0.23773,-0.046 0.292901,-0.069 0.105357,-0.045 0.285756,-0.071 0.42401,-0.1213 0.121246,-0.044 0.338835,-0.111 0.224558,-0.2497 -0.09532,-0.01 -0.141477,0.111 -0.224558,0.1465 -0.05737,0.01 -0.04603,-0.048 -0.09485,-0.052 -0.04625,-0.01 -0.07288,0.043 -0.120647,0.036 -0.04752,-0.01 -0.11391,-0.082 -0.121344,-0.1374 -0.01895,-0.1441 0.121595,-0.2034 0.181319,-0.311 -0.03947,-0.1304 -0.219426,-0.028 -0.328467,-0.079 0.01046,-0.077 0.09128,-0.1316 0.182017,-0.1465 0.07434,-0.012 0.240963,-0.01 0.28523,0.035 0.02596,0.021 0.0031,0.076 0.04324,0.1123 0.04406,0.04 0.09769,0.037 0.154818,0.027 0.02076,-0.098 -0.128417,-0.074 -0.112278,-0.1389 0.116662,-0.077 0.305579,-0.012 0.448417,-0.034 0.08222,-0.012 0.169132,-0.071 0.241992,-0.1123 0.06932,-0.039 0.160113,-0.1089 0.233624,-0.045 0.02008,0.07 -0.06466,0.095 -0.10391,0.1297 -0.13215,0.1175 -0.268984,0.2528 -0.371706,0.3892 0.06304,0.061 0.178605,0.03 0.28523,0.042 0.04166,0.01 0.0947,0.019 0.138779,0.027 0.05145,0.01 0.105422,0.01 0.145754,0.017 0.07264,0.018 0.09351,0.096 0.16528,0.096 0.118181,-10e-5 0.118549,-0.1286 0.05161,-0.2084 0.02117,-0.082 0.05389,-0.1234 0.0251,-0.1806 -0.05323,-0.1064 -0.248689,0 -0.258729,-0.1382 -0.0063,-0.086 0.07202,-0.083 0.103213,-0.1471 -0.01421,-0.1664 0.13815,-0.1786 0.122042,-0.3277 -0.0067,-0.062 -0.06008,-0.062 -0.103911,-0.1207 -0.02268,-0.03 -0.03414,-0.089 -0.06137,-0.1123 -0.0903,-0.076 -0.273411,-0.061 -0.284532,-0.2071 -0.004,-0.086 0.02037,-0.1584 0.0084,-0.2518 -0.0111,-0.087 -0.07034,-0.3279 -0.146451,-0.3444 -0.0964,-0.021 -0.195455,0.1439 -0.311033,0.1987 -0.06283,0.03 -0.152452,0.064 -0.215491,0.051 -0.04099,-0.01 -0.122697,-0.068 -0.129017,-0.1478 -0.007,-0.091 0.05992,-0.092 0.07671,-0.189 -0.01441,-0.058 -0.07297,-0.045 -0.129015,-0.087 -0.06347,-0.049 -0.11434,-0.1513 -0.198754,-0.1633 -0.04207,-0.01 -0.0962,0.031 -0.138082,0.036 -0.128464,0.01 -0.239831,-0.083 -0.337534,-0.06 -0.116665,0.027 -0.111099,0.2074 -0.22386,0.2421 0.01528,0.085 -0.09964,0.1396 -0.112279,0.2064 -0.0085,0.045 0.01413,0.099 0.01674,0.1395 0.02596,0.413 -0.313845,0.6066 -0.716213,0.5956 -0.078933,0.076 -0.060243,0.2158 -0.1032128,0.3193 -0.0362,0.087 -0.1640403,0.1796 -0.2510581,0.1722 -0.064338,-0.01 -0.1378652,-0.094 -0.1380812,-0.154 -2.196e-4,-0.074 0.1071451,-0.1157 0.043237,-0.2001 0.00916,-0.058 0.1363544,-0.089 0.1206479,-0.1807 -0.016143,-0.095 -0.1491499,-0.047 -0.2677949,-0.061 -0.086365,-0.011 -0.2003145,-0.06 -0.2768619,-0.1025 -0.1011739,-0.056 -0.1874691,-0.1656 -0.3194018,-0.182 -0.075028,-0.01 -0.1452762,0.026 -0.1806223,-0.017 -0.038783,-0.046 0.015936,-0.1153 0.018131,-0.1471 -0.00261,-0.052 -0.1002083,-0.069 -0.1046076,-0.1207 -0.00351,-0.037 0.09285,-0.1502 0.1297137,-0.182 0.068243,-0.059 0.1927565,-0.1218 0.3026641,-0.1814 0.107524,-0.058 0.2318963,-0.1198 0.3361395,-0.1547 0.044514,-0.015 0.095333,-0.01 0.1380815,-0.026 0.1092688,-0.041 0.1811695,-0.1176 0.2845416,-0.1479 0.053873,-0.017 0.1134592,-0.012 0.1736487,-0.026 0.1432744,-0.032 0.2491104,-0.1347 0.3710074,-0.1555 -0.02703,0.1 -0.137926,0.1154 -0.163885,0.2163 0.104457,0.19 0.283329,-0.045 0.405878,-0.044 0.11124,0 0.222673,0.1578 0.2929,0.01 -0.0255,-0.081 -0.100508,-0.1261 -0.172253,-0.1723 -0.06629,-0.042 -0.170854,-0.081 -0.163886,-0.1737 0.07962,-0.036 0.109976,0.061 0.18132,0.061 0.03881,3e-4 0.0896,-0.048 0.129714,-0.061 0.08986,-0.031 0.240125,-0.04 0.311033,-0.1025 0.04272,-0.038 0.03519,-0.098 0.06834,-0.1471 0.02836,-0.041 0.09891,-0.053 0.129016,-0.095 0.03666,-0.051 0.0061,-0.094 0.053,-0.1206 0.10077,-0.045 0.225892,0.01 0.337534,0 0.05278,-0.01 0.08766,-0.048 0.137384,-0.044 0.09662,0.01 0.14787,0.1629 0.215492,0.207 0.04951,0.032 0.13863,0.031 0.147147,0.094 0.01677,0.1259 -0.165185,0.1364 -0.27686,0.2001 -0.05561,0.032 -0.0777,0.1031 -0.145753,0.129 -0.182739,0.07 -0.461097,-0.077 -0.519551,0.12 0.08441,0.1242 0.239246,-0.01 0.345902,-0.01 0.07612,0 0.168839,0.07 0.215491,0.1206 0.04036,0.043 0.05484,0.1278 0.103911,0.1562 0.03271,0.019 0.09003,0.013 0.129713,0.026 0.126699,0.039 0.233019,0.1068 0.371706,0.077 0.04756,-0.084 -0.0977,-0.1073 -0.04254,-0.1729 0.09293,0.01 0.152331,0.049 0.223861,0.079 0.0999,-0.073 0.167386,-0.082 0.163884,-0.1995 -0.0028,-0.098 -0.130753,-0.1027 -0.129015,-0.2162 0.0011,-0.064 0.04576,-0.092 0.09415,-0.094 0.111209,-0.01 0.14366,0.161 0.225256,0.1729 0.04926,0.01 0.195093,-0.065 0.224557,-0.079 0.04162,-0.02 0.168135,-0.095 0.172254,-0.1374 0.0064,-0.064 -0.133327,-0.1468 -0.198755,-0.1736 -0.09312,-0.039 -0.185897,-0.032 -0.223162,-0.1123 -0.01984,-0.044 0.01077,-0.088 -0.0265,-0.1193 -0.0044,-0.047 0.05697,-0.077 0.04324,-0.1228 -0.01396,-0.046 -0.06428,-0.038 -0.129712,-0.067 -0.04601,-0.021 -0.08893,-0.068 -0.129017,-0.078 -0.05412,-0.013 -0.10731,0 -0.148541,-0.018 -0.15179,-0.056 -0.122639,-0.1834 -0.223163,-0.2426 -0.130417,0.017 -0.243063,-0.046 -0.336836,0.01 -0.02917,-0.017 -0.06319,-0.022 -0.09833,-0.025 l 0,0 c -0.0054,-3e-4 -0.01127,0 -0.01674,0 z m 0.0035,0.7078 c -0.08363,-0.011 -0.196628,0.06 -0.182714,0.1201 0.02332,0.099 0.269148,0 0.251058,-0.078 -0.01566,-0.026 -0.04046,-0.039 -0.06834,-0.041 l 0,0 z m 0.469341,0.2142 c 0.01012,-2e-4 0.02177,0.01 0.03138,0.01 0.0061,0.043 -0.01889,0.056 -0.06137,0.051 -0.02552,-0.032 -4.99e-4,-0.059 0.02998,-0.06 z m -1.955464,0.5398 c -0.0168,0 -0.03174,0.01 -0.04324,0.014 -0.03378,0.02 -0.03792,0.052 -0.03487,0.068 0.01851,0.092 0.191421,0.012 0.189688,-0.036 -0.0011,-0.023 -0.02707,-0.039 -0.05997,-0.045 l 0,0 c -0.01645,0 -0.03481,0 -0.05161,0 z m 9.215226,0.1987 c -0.0119,0.091 0.02354,0.1616 0.03347,0.2287 0.0072,0.049 -0.0071,0.093 0.0091,0.1389 0.02836,0.081 0.142619,0.1638 0.25036,0.1638 0.09043,0 0.169182,-0.06 0.244085,-0.113 -0.172885,-0.1467 -0.35386,-0.2839 -0.536986,-0.4184 z m -1.071182,0.394 c -0.04427,0.058 -0.123322,0.034 -0.198754,0.06 -0.06087,0.021 -0.174681,0.1259 -0.190386,0.1631 -0.02596,0.061 0.0063,0.1307 0,0.2254 0.04928,0.021 0.07969,0.1183 0.163885,0.1644 0.03185,0.018 0.07553,0.01 0.10391,0.026 0.04928,0.028 0.08814,0.088 0.0781,0.1374 -0.0146,0.071 -0.107348,0.052 -0.155517,0.1047 0.0083,0.1007 -0.07047,0.1135 -0.09554,0.1806 0.01507,0.042 0.07903,0.036 0.08578,0.085 -0.0096,0.055 -0.107155,0.064 -0.08578,0.1221 0.09247,0.072 0.188712,-0.015 0.276164,-0.026 0.193209,-0.024 0.391144,0.023 0.509788,-0.07 -0.01614,-0.092 0.09651,-0.1247 0.08647,-0.2071 -0.0076,-0.062 -0.110829,-0.069 -0.156214,-0.1123 -0.02418,-0.022 -0.02959,-0.076 -0.05928,-0.1207 -0.034,-0.051 -0.10083,-0.088 -0.138779,-0.138 -0.0508,-0.068 -0.155699,-0.165 -0.155516,-0.2163 8.57e-4,-0.059 0.07271,-0.076 0.08578,-0.1562 -0.01502,-0.074 -0.151836,-0.025 -0.162491,-0.1025 0.0057,-0.049 0.05047,-0.058 0.05091,-0.1123 -0.01002,-0.01 -0.02268,-0.011 -0.04254,-0.01 z m 1.726722,0.2051 0,0 c -0.130635,0.062 -0.223242,0.044 -0.259426,0.1464 -0.04582,0.13 0.07919,0.2253 0.06067,0.346 -0.01963,0.1266 -0.281712,0.083 -0.397508,0.1038 -0.08658,0.017 -0.118377,0.1217 -0.189689,0.2072 -0.0495,0.059 -0.14268,0.1239 -0.216188,0.1554 -0.03599,0.016 -0.07936,0.013 -0.112279,0.036 -0.04864,0.031 -0.06548,0.1091 -0.120648,0.1465 -0.03973,0.027 -0.191044,0.1024 -0.232926,0.1032 -0.04907,0 -0.0944,-0.045 -0.129713,-0.033 -0.05189,0.017 -0.04545,0.1175 -0.103911,0.1381 -0.114495,0.04 -0.305307,-0.1016 -0.345204,0.069 0.04907,0.099 0.173741,0.075 0.259426,0.129 0.05387,0.033 0.167132,0.1842 0.18132,0.242 0.01199,0.049 -0.0065,0.2424 -0.0265,0.2943 -0.05343,0.1378 -0.177596,0.09 -0.336138,0.085 -0.0434,0 -0.0889,0.011 -0.129017,0.01 -0.267369,-0.019 -0.536121,-0.1117 -0.656935,0.078 0.0097,0.1465 0.04064,0.2436 0.0084,0.371 -0.02377,0.093 -0.107334,0.1784 -0.103213,0.2594 0.0019,0.041 0.04991,0.081 0.05997,0.1374 0.0052,0.03 -0.01397,0.094 0,0.1214 0.04384,0.085 0.163897,0.013 0.241993,0.026 0.07633,0.012 0.164758,0.1216 0.163884,0.2071 -8.2e-4,0.059 -0.05781,0.1588 -0.09554,0.2162 -0.07543,0.1145 -0.176573,0.1203 -0.284531,0.1814 -0.09005,0.051 -0.128534,0.1357 -0.18132,0.2245 -0.05716,0.096 -0.09189,0.154 -0.06834,0.2929 -0.0772,0.1531 -0.194394,0.2472 -0.354271,0.3201 -0.0473,0.021 -0.112117,0.03 -0.155516,0.06 -0.03444,0.026 -0.05485,0.092 -0.10391,0.1471 -0.06041,0.067 -0.123674,0.095 -0.155517,0.1465 -0.02462,0.04 -0.03291,0.1188 -0.05997,0.1722 -0.03687,0.073 -0.116863,0.1086 -0.16528,0.1821 -0.02225,0.035 -0.03533,0.1018 -0.05997,0.1464 -0.05474,0.099 -0.147425,0.1713 -0.137385,0.2588 0.01,0.085 0.104345,0.1 0.110884,0.1735 0.0038,0.041 -0.02684,0.067 -0.0251,0.1116 0.003,0.067 0.04638,0.113 0.0516,0.164 0.01308,0.1282 -0.04485,0.1801 -0.06904,0.2678 -0.01156,0.041 -0.0058,0.088 -0.01674,0.1213 -0.02117,0.064 -0.110531,0.1222 -0.112279,0.1981 -0.0011,0.054 0.05609,0.098 0.06068,0.1736 0.0035,0.052 -0.02728,0.1062 -0.01813,0.1541 0.01832,0.094 0.186382,0.2038 0.259426,0.2769 0.0977,0.098 0.224999,0.1732 0.267098,0.2761 0.03553,0.087 0.03659,0.2027 0.104607,0.2686 0.05037,0.049 0.1335,0.078 0.198058,0.129 0.06016,0.047 0.126075,0.088 0.190385,0.1387 0.105139,0.082 0.263486,0.2449 0.430983,0.2323 0.08745,-0.01 0.176944,-0.077 0.276165,-0.095 0.102071,-0.018 0.234594,-0.028 0.337533,-0.018 0.07896,0.01 0.159295,0.056 0.241295,0.051 0.08655,0 0.186877,-0.069 0.285229,-0.1123 0.170317,-0.074 0.424862,-0.1738 0.673674,-0.1374 0.189523,0.028 0.179747,0.2446 0.311033,0.3278 0.152441,0.012 0.276913,-0.057 0.397509,-0.027 0.09117,0.021 0.198417,0.1607 0.207122,0.2328 0.0089,0.075 -0.0407,0.1875 -0.05161,0.2337 -0.02379,0.1008 -0.02585,0.2207 -0.04394,0.2845 -0.01397,0.049 -0.05248,0.082 -0.0516,0.1311 0.0011,0.045 0.05747,0.1555 0.10391,0.2148 0.05672,0.073 0.147263,0.1289 0.216189,0.2079 0.126482,0.1446 0.180344,0.3192 0.267795,0.5097 0.03185,0.069 0.09264,0.1769 0.09415,0.2497 0.0011,0.054 -0.03012,0.1013 -0.0251,0.1555 0.01089,0.1158 0.08264,0.1667 0.09484,0.2685 0.02837,0.2402 -0.188876,0.3109 -0.232926,0.5084 -0.01041,0.048 5.71e-4,0.096 -0.0091,0.1388 -0.01484,0.064 -0.06035,0.1116 -0.06974,0.1722 -0.0094,0.062 -0.02266,0.1793 -0.01674,0.2421 0.0087,0.093 0.10761,0.1778 0.156214,0.2593 0.0517,0.086 0.09328,0.2327 0.154121,0.3446 0.03378,0.062 0.09067,0.1146 0.104608,0.1653 0.01808,0.066 -4.63e-4,0.1526 0.0091,0.2322 0.0076,0.065 0.04287,0.1204 0.0516,0.1722 0.02457,0.1457 0.0341,0.2904 0.09624,0.4157 1.216547,-1.3413 2.056904,-3.0288 2.363432,-4.9012 0.07318,-0.4786 0.112976,-0.9688 0.112976,-1.4687 0,-1.0553 -0.17355,-2.0673 -0.483984,-3.0162 -0.11358,-0.025 -0.233127,-0.1 -0.361942,-0.1144 -0.03839,-0.01 -0.08217,0.01 -0.112279,0 -0.03991,-0.01 -0.07086,-0.056 -0.112279,-0.069 -0.07178,-0.023 -0.126679,-0.01 -0.189688,-0.026 -0.08506,-0.1499 -0.516193,-0.1599 -0.553025,0.06 -0.01639,0.097 0.05045,0.2336 -0.09415,0.2503 -0.09182,0.011 -0.186596,-0.093 -0.312427,-0.1206 -0.05145,-0.011 -0.123769,-0.01 -0.163886,-0.018 -0.0942,-0.032 -0.08278,-0.1235 -0.163885,-0.1806 -0.04711,-0.032 -0.167615,-0.078 -0.241992,-0.086 -0.04622,-0.01 -0.08853,0.013 -0.137385,0.01 -0.05802,-0.01 -0.141321,-0.047 -0.190385,-0.076 -0.04687,-0.029 -0.143528,-0.072 -0.155516,-0.113 -0.01832,-0.064 0.116759,-0.1355 0.121344,-0.1897 0.0035,-0.041 -0.05063,-0.067 -0.06067,-0.1298 -0.0058,-0.038 0.01627,-0.078 0.0091,-0.1031 -0.01264,-0.045 -0.08667,-0.094 -0.156214,-0.095 -0.06152,0 -0.119687,0.049 -0.172254,0.051 -0.0759,0.01 -0.198913,-0.042 -0.292901,-0.036 -0.05759,0.01 -0.111628,0.04 -0.165279,0.043 -0.150492,0.012 -0.271302,-0.01 -0.387746,0 -0.08482,0.01 -0.232101,0.032 -0.311034,0.068 -0.04011,0.019 -0.06967,0.059 -0.121344,0.085 -0.02332,0.011 -0.05623,0.012 -0.08717,0.027 -0.04907,0.022 -0.0991,0.075 -0.145753,0.086 -0.06762,0.018 -0.172182,-0.012 -0.294297,-0.01 -0.08767,0.01 -0.230915,0.01 -0.232228,-0.1045 -0.0021,-0.1599 0.270994,-0.1008 0.421917,-0.1291 0.05691,-0.011 0.08818,-0.064 0.156214,-0.1039 0.03253,-0.019 0.07336,-0.023 0.10391,-0.043 0.05232,-0.037 0.13043,-0.1222 0.138082,-0.1639 0.0067,-0.039 -0.02198,-0.092 -0.01744,-0.1206 0.0059,-0.037 0.04798,-0.075 0.09484,-0.1214 0.07283,-0.072 0.15259,-0.1684 0.241992,-0.2154 0.06109,-0.032 0.144822,-0.029 0.17295,-0.077 0.0063,-0.055 -0.01037,-0.087 -0.0091,-0.1374 0.03753,-0.035 0.06413,-0.064 0.09554,-0.07 0.09312,-0.02 0.184512,0.065 0.292902,0.06 0.04687,0 0.08771,-0.037 0.138081,-0.069 0.04231,-0.028 0.08826,-0.048 0.129714,-0.068 0.04558,-0.023 0.09246,-0.074 0.147845,-0.077 0.135869,-0.01 0.187924,0.1435 0.249663,0.2253 0.05167,0.068 0.200414,0.1839 0.28523,0.2315 0.04776,0.028 0.111316,0.03 0.163885,0.053 0.112109,0.05 0.332408,0.2177 0.336139,0.3277 0.0019,0.055 -0.05106,0.097 -0.04254,0.1471 0.08482,0.014 0.179833,-0.079 0.182018,-0.1638 0.0011,-0.053 -0.05353,-0.083 -0.04324,-0.1388 0.03967,-0.086 0.155159,2e-4 0.206426,-0.036 -0.0098,-0.097 -0.142125,-0.1047 -0.224558,-0.1548 -0.04449,-0.028 -0.07442,-0.085 -0.120648,-0.1046 -0.06695,-0.028 -0.137553,-0.02 -0.189688,-0.06 -0.04885,-0.038 -0.07384,-0.1246 -0.122041,-0.1819 -0.07001,-0.084 -0.222722,-0.096 -0.180623,-0.2847 0.02096,-0.029 0.07141,-0.072 0.103911,-0.06 0.06412,0.016 0.05588,0.07 0.103212,0.1032 0.03444,0.025 0.08275,0.019 0.121345,0.043 0.04535,0.029 0.0694,0.1033 0.120647,0.1464 0.07243,0.061 0.200622,0.1077 0.302665,0.1563 0.09553,0.046 0.249057,0.1072 0.267795,0.1896 0.01046,0.047 -0.01519,0.098 -0.0091,0.1381 0.0076,0.051 0.04437,0.1035 0.06904,0.1374 0.06672,0.092 0.160113,0.1744 0.233623,0.2859 -0.0021,0.1518 0.05421,0.2458 0.224559,0.2253 0.06149,-0.032 0.02992,-0.079 0.0781,-0.1304 0.04535,-0.049 0.14488,-0.041 0.145753,-0.1123 0.0011,-0.1084 -0.257903,-0.1256 -0.22386,-0.2853 0.01001,-0.051 0.06623,-0.027 0.111581,-0.026 0.03877,-0.045 0.09958,-0.094 0.163187,-0.113 -0.408587,-0.7589 -0.920863,-1.4511 -1.509835,-2.0698 -0.01163,0 -0.02323,0.01 -0.03487,0.01 -0.06434,0 -0.130635,-0.079 -0.232925,-0.078 -0.05278,0 -0.09285,0.039 -0.147148,0.044 -0.06846,0.01 -0.177241,-0.022 -0.172254,-0.077 0.0076,-0.085 0.123397,-0.015 0.189688,-0.027 0.08333,-0.015 0.06465,-0.085 0.121344,-0.095 0.02398,0 0.04823,0.01 0.07602,0.017 -0.04348,-0.043 -0.091,-0.081 -0.135292,-0.1234 -0.04908,0.047 -0.168444,0.064 -0.235019,0.064 -0.0069,-0.078 0.01144,-0.2057 -0.05161,-0.2504 z m -2.320195,0.3319 0,0 c -0.03531,0 -0.06949,0.013 -0.09833,0.031 -0.06564,0.04 -0.08725,0.102 -0.138082,0.1213 -0.07001,0.027 -0.118578,0.01 -0.129015,0.069 -0.0085,0.053 0.04476,0.079 0.04324,0.129 -0.02551,0.064 -0.100337,0.08 -0.112976,0.1562 0.08745,0.1428 0.297967,0.014 0.406575,-0.018 0.04885,-0.015 0.120057,-0.011 0.14645,-0.051 0.03012,-0.046 0.0028,-0.1251 0.0251,-0.1911 0.02504,-0.073 0.09636,-0.082 0.08787,-0.1465 -0.0084,-0.065 -0.12497,-0.111 -0.230835,-0.1005 z m -10.5821099,0.2476 c 0.161582,-0.038 0.096375,0.2482 0,0.2517 -0.1343478,0.01 -0.1082033,-0.2264 0,-0.2517 z m 1.0879182,0.7615 c 0.078285,0.021 0.2843598,0.2455 0.1122786,0.3187 -0.016332,0.01 -0.2534993,0.032 -0.2942957,0.026 -0.059731,-0.01 -0.093716,-0.092 -0.1541215,-0.1032 -0.1192946,-0.021 -0.2808586,0.1431 -0.3626394,0.01 0.020696,-0.076 0.1062246,-0.078 0.1973591,-0.1032 0.1618295,-0.044 0.361403,-0.1824 0.5014189,-0.1458 l 0,0 z m 0.3284675,0.4122 0,0 c 0.04033,0 0.089227,0.048 0.1380821,0.051 0.046215,0.01 0.084629,-0.023 0.112976,-0.017 0.072184,0.019 0.1013233,0.1286 0.033474,0.182 -0.056473,0.01 -0.078114,-0.026 -0.120647,-0.018 -0.1173141,0.02 -0.1626924,0.2483 -0.2503608,0.2407 -0.082676,-0.01 -0.1271906,-0.2072 -0.043237,-0.2671 0.00324,-0.052 -0.037532,-0.061 -0.034868,-0.113 0.025303,-0.031 0.095688,-0.067 0.1645829,-0.06 z m -0.3891393,0.029 c 0.024061,0 0.043354,0.01 0.052307,0.017 -0.011563,0.092 -0.084422,0.087 -0.1555163,0.1297 -0.1227958,0.075 -0.1938642,0.1874 -0.2329266,0.3459 -0.011347,0.046 -0.1319308,0.1664 -0.1903854,0.1541 -0.1369501,-0.029 0.037829,-0.2809 0.069044,-0.3193 0.034436,-0.042 0.08058,-0.08 0.1213444,-0.1291 0.039467,-0.048 0.064347,-0.1116 0.1025156,-0.1381 0.041698,-0.029 0.161465,-0.062 0.2336239,-0.059 l 0,0 z m 1.0223643,0.3104 0,0 c 0.043822,0 0.081722,0.01 0.099726,0.023 -0.028138,0.114 -0.2727713,0.084 -0.3626407,0.044 0.00585,-0.042 0.073912,-0.055 0.1304111,-0.06 0.040033,0 0.088669,-0.01 0.1325035,-0.01 z m -0.5593024,0.2092 0,0 c 0.029478,0 0.059272,-3e-4 0.089965,0.012 -0.079581,0.066 -0.1654486,0.104 -0.3019677,0.1471 -0.065642,0.021 -0.1792627,0.047 -0.1903854,-0.027 -0.01374,-0.09 0.095544,-0.069 0.1555171,-0.077 0.075414,-0.01 0.1584749,-0.054 0.246873,-0.057 z m 11.2536786,0 c -0.056,0.019 -0.08266,0.1362 0.0028,0.1512 0.03967,-0.023 0.07049,-0.056 0.06068,-0.1289 -0.02191,-0.022 -0.04409,-0.029 -0.06276,-0.022 l -7.15e-4,0 0,0 z m -0.02162,0.2406 c -0.02769,0.01 -0.05821,0.027 -0.08787,0.058 0.0021,0.096 0.0106,0.1582 -0.0084,0.2419 0.05564,0.1064 0.178052,0.01 0.206425,-0.061 0.03337,-0.1797 -0.02721,-0.2611 -0.110187,-0.2384 z m 0.736438,0.4755 c -0.07687,-0.01 -0.148834,0.01 -0.193874,0.04 0.06326,0.1037 0.195996,0.1383 0.337535,0.1639 0.05102,-0.039 0.05339,-0.1244 0.07671,-0.1904 -0.06205,0 -0.143502,-0.01 -0.220373,-0.012 l 0,0 z m -11.8094932,4.4877 c 0.082865,-0.039 0.1031688,0.1179 0.034868,0.129 -0.064554,0.01 -0.097501,-0.1 -0.034868,-0.129 z"
       id="path34" />
    <text
       xml:space="preserve"
       style="font-size:25.79521561px;font-style:normal;font-variant:normal;font-weight:normal;font-stretch:normal;line-height:125%;letter-spacing:0px;word-spacing:0px;fill:#aedffa;fill-opacity:1;stroke:none;font-family:Gillius ADF;-inkscape-font-specification:Gillius ADF"
       x="2.9999986"
       y="1104.5197"
       id="text3013"
       sodipodi:linespacing="125%"><tspan
         sodipodi:role="line"
         id="tspan3015"
         x="2.9999986"
         y="1104.5197">AiMIS</tspan></text>
  </g>
</svg>
